<mxfile host="app.diagrams.net" modified="2024-01-18T19:18:39.168Z" agent="Mozilla/5.0 (Windows NT 10.0; Win64; x64; rv:121.0) Gecko/20100101 Firefox/121.0" etag="RjJhsIGl87Z8fkmw4gzQ" version="22.1.21" type="device">
  <diagram name="Page-1" id="3PE8tsGiLxIbhWma-mdi">
    <mxGraphModel dx="1032" dy="1105" grid="1" gridSize="10" guides="1" tooltips="1" connect="1" arrows="1" fold="1" page="1" pageScale="1" pageWidth="827" pageHeight="1169" math="0" shadow="0">
      <root>
        <mxCell id="0" />
        <mxCell id="1" parent="0" />
        <mxCell id="cqsdW3lU-omsjwraK1ex-1" value="Case_ressource&lt;br&gt;&lt;br&gt;&lt;div&gt;La case ressource est une case qui permet de donner au&lt;/div&gt;&lt;div&gt;joueur qui tombe dessus, de choisir entre l&#39;une des 4 ressources pour&lt;/div&gt;&lt;div&gt;en recevoir une&lt;/div&gt;" style="swimlane;fontStyle=1;align=center;verticalAlign=top;childLayout=stackLayout;horizontal=1;startSize=90;horizontalStack=0;resizeParent=1;resizeParentMax=0;resizeLast=0;collapsible=1;marginBottom=0;whiteSpace=wrap;html=1;labelBackgroundColor=none;fillColor=#B2C9AB;strokeColor=#788AA3;fontColor=#46495D;rounded=1;" parent="1" vertex="1">
          <mxGeometry x="20" y="20" width="520" height="200" as="geometry">
            <mxRectangle x="310" y="90" width="60" height="30" as="alternateBounds" />
          </mxGeometry>
        </mxCell>
        <mxCell id="cqsdW3lU-omsjwraK1ex-2" value="&lt;b&gt;- ressource_contenue&lt;/b&gt;&lt;br&gt;Ressources donné par la case même" style="text;strokeColor=none;fillColor=none;align=left;verticalAlign=top;spacingLeft=4;spacingRight=4;overflow=hidden;rotatable=0;points=[[0,0.5],[1,0.5]];portConstraint=eastwest;whiteSpace=wrap;html=1;labelBackgroundColor=none;fontColor=#46495D;rounded=1;" parent="cqsdW3lU-omsjwraK1ex-1" vertex="1">
          <mxGeometry y="90" width="520" height="40" as="geometry" />
        </mxCell>
        <mxCell id="cqsdW3lU-omsjwraK1ex-4" value="" style="line;strokeWidth=1;fillColor=none;align=left;verticalAlign=middle;spacingTop=-1;spacingLeft=3;spacingRight=3;rotatable=0;labelPosition=right;points=[];portConstraint=eastwest;strokeColor=#788AA3;labelBackgroundColor=none;fontColor=#46495D;rounded=1;" parent="cqsdW3lU-omsjwraK1ex-1" vertex="1">
          <mxGeometry y="130" width="520" height="8" as="geometry" />
        </mxCell>
        <mxCell id="cqsdW3lU-omsjwraK1ex-5" value="&lt;div&gt;&lt;b&gt;+ donnerRessource&lt;/b&gt;&lt;/div&gt;&lt;div&gt;Donne le type de ressource que la case propose quand on tombe dessus&lt;/div&gt;" style="text;strokeColor=none;fillColor=none;align=left;verticalAlign=top;spacingLeft=4;spacingRight=4;overflow=hidden;rotatable=0;points=[[0,0.5],[1,0.5]];portConstraint=eastwest;whiteSpace=wrap;html=1;labelBackgroundColor=none;fontColor=#46495D;rounded=1;" parent="cqsdW3lU-omsjwraK1ex-1" vertex="1">
          <mxGeometry y="138" width="520" height="62" as="geometry" />
        </mxCell>
        <mxCell id="NX_1nB3qf75w2sHviqtp-1" value="&lt;div&gt;Case_vol&lt;/div&gt;&lt;br&gt;La case vol, est une case qui permet à un joueur de voler&lt;br&gt;l&#39;une des ressources d&#39;un autre joueur." style="swimlane;fontStyle=1;align=center;verticalAlign=top;childLayout=stackLayout;horizontal=1;startSize=70;horizontalStack=0;resizeParent=1;resizeParentMax=0;resizeLast=0;collapsible=1;marginBottom=0;whiteSpace=wrap;html=1;labelBackgroundColor=none;fillColor=#B2C9AB;strokeColor=#788AA3;fontColor=#46495D;rounded=1;" vertex="1" parent="1">
          <mxGeometry x="20" y="260" width="520" height="78" as="geometry">
            <mxRectangle x="20" y="280" width="60" height="30" as="alternateBounds" />
          </mxGeometry>
        </mxCell>
        <mxCell id="NX_1nB3qf75w2sHviqtp-3" value="" style="line;strokeWidth=1;fillColor=none;align=left;verticalAlign=middle;spacingTop=-1;spacingLeft=3;spacingRight=3;rotatable=0;labelPosition=right;points=[];portConstraint=eastwest;strokeColor=#788AA3;labelBackgroundColor=none;fontColor=#46495D;rounded=1;" vertex="1" parent="NX_1nB3qf75w2sHviqtp-1">
          <mxGeometry y="70" width="520" height="8" as="geometry" />
        </mxCell>
        <mxCell id="NX_1nB3qf75w2sHviqtp-5" value="&lt;div&gt;Case&lt;/div&gt;&lt;div&gt;&lt;br&gt;&lt;/div&gt;&lt;div&gt;Case du plateau avec ou sans spécificité ou influence&lt;/div&gt;sur la partie" style="swimlane;fontStyle=1;align=center;verticalAlign=top;childLayout=stackLayout;horizontal=1;startSize=70;horizontalStack=0;resizeParent=1;resizeParentMax=0;resizeLast=0;collapsible=1;marginBottom=0;whiteSpace=wrap;html=1;labelBackgroundColor=none;fillColor=#B2C9AB;strokeColor=#788AA3;fontColor=#46495D;rounded=1;" vertex="1" parent="1">
          <mxGeometry x="20" y="370" width="520" height="78" as="geometry">
            <mxRectangle x="310" y="90" width="60" height="30" as="alternateBounds" />
          </mxGeometry>
        </mxCell>
        <mxCell id="NX_1nB3qf75w2sHviqtp-7" value="" style="line;strokeWidth=1;fillColor=none;align=left;verticalAlign=middle;spacingTop=-1;spacingLeft=3;spacingRight=3;rotatable=0;labelPosition=right;points=[];portConstraint=eastwest;strokeColor=#788AA3;labelBackgroundColor=none;fontColor=#46495D;rounded=1;" vertex="1" parent="NX_1nB3qf75w2sHviqtp-5">
          <mxGeometry y="70" width="520" height="8" as="geometry" />
        </mxCell>
        <mxCell id="NX_1nB3qf75w2sHviqtp-9" value="&lt;div&gt;Etage&lt;/div&gt;&lt;div&gt;&lt;br&gt;&lt;/div&gt;Etage des buildings qui peuvent s&#39;empiler les uns sur&lt;br&gt;les autres" style="swimlane;fontStyle=1;align=center;verticalAlign=top;childLayout=stackLayout;horizontal=1;startSize=70;horizontalStack=0;resizeParent=1;resizeParentMax=0;resizeLast=0;collapsible=1;marginBottom=0;whiteSpace=wrap;html=1;labelBackgroundColor=none;fillColor=#B2C9AB;strokeColor=#788AA3;fontColor=#46495D;rounded=1;" vertex="1" parent="1">
          <mxGeometry x="20" y="470" width="520" height="78" as="geometry">
            <mxRectangle x="20" y="280" width="60" height="30" as="alternateBounds" />
          </mxGeometry>
        </mxCell>
        <mxCell id="NX_1nB3qf75w2sHviqtp-10" value="" style="line;strokeWidth=1;fillColor=none;align=left;verticalAlign=middle;spacingTop=-1;spacingLeft=3;spacingRight=3;rotatable=0;labelPosition=right;points=[];portConstraint=eastwest;strokeColor=#788AA3;labelBackgroundColor=none;fontColor=#46495D;rounded=1;" vertex="1" parent="NX_1nB3qf75w2sHviqtp-9">
          <mxGeometry y="70" width="520" height="8" as="geometry" />
        </mxCell>
        <mxCell id="NX_1nB3qf75w2sHviqtp-11" value="Case_ressource&lt;br&gt;&lt;br&gt;&lt;div&gt;La case ressource est une case qui permet de donner au&lt;/div&gt;&lt;div&gt;joueur qui tombe dessus, de choisir entre l&#39;une des 4 ressources pour&lt;/div&gt;&lt;div&gt;en recevoir une&lt;/div&gt;" style="swimlane;fontStyle=1;align=center;verticalAlign=top;childLayout=stackLayout;horizontal=1;startSize=90;horizontalStack=0;resizeParent=1;resizeParentMax=0;resizeLast=0;collapsible=1;marginBottom=0;whiteSpace=wrap;html=1;labelBackgroundColor=none;fillColor=#B2C9AB;strokeColor=#788AA3;fontColor=#46495D;rounded=1;" vertex="1" parent="1">
          <mxGeometry x="20" y="585" width="520" height="150" as="geometry">
            <mxRectangle x="310" y="90" width="60" height="30" as="alternateBounds" />
          </mxGeometry>
        </mxCell>
        <mxCell id="NX_1nB3qf75w2sHviqtp-13" value="" style="line;strokeWidth=1;fillColor=none;align=left;verticalAlign=middle;spacingTop=-1;spacingLeft=3;spacingRight=3;rotatable=0;labelPosition=right;points=[];portConstraint=eastwest;strokeColor=#788AA3;labelBackgroundColor=none;fontColor=#46495D;rounded=1;" vertex="1" parent="NX_1nB3qf75w2sHviqtp-11">
          <mxGeometry y="90" width="520" height="8" as="geometry" />
        </mxCell>
        <mxCell id="NX_1nB3qf75w2sHviqtp-14" value="&lt;div&gt;&lt;b&gt;+ donnerRessource&lt;/b&gt;&lt;/div&gt;&lt;div&gt;La possibilité de choisir l&#39;apparence que le joueur aura&lt;br&gt;&lt;br&gt;&lt;/div&gt;" style="text;strokeColor=none;fillColor=none;align=left;verticalAlign=top;spacingLeft=4;spacingRight=4;overflow=hidden;rotatable=0;points=[[0,0.5],[1,0.5]];portConstraint=eastwest;whiteSpace=wrap;html=1;labelBackgroundColor=none;fontColor=#46495D;rounded=1;" vertex="1" parent="NX_1nB3qf75w2sHviqtp-11">
          <mxGeometry y="98" width="520" height="52" as="geometry" />
        </mxCell>
        <mxCell id="NX_1nB3qf75w2sHviqtp-15" value="&lt;div&gt;Hameau&lt;br&gt;&lt;/div&gt;&lt;div&gt;&lt;br&gt;&lt;/div&gt;Case où les joueurs peuvent acheter des propriétés&lt;br&gt;pour ensuite construire des bâtiments dans des quartiers" style="swimlane;fontStyle=1;align=center;verticalAlign=top;childLayout=stackLayout;horizontal=1;startSize=70;horizontalStack=0;resizeParent=1;resizeParentMax=0;resizeLast=0;collapsible=1;marginBottom=0;whiteSpace=wrap;html=1;labelBackgroundColor=none;fillColor=#B2C9AB;strokeColor=#788AA3;fontColor=#46495D;rounded=1;" vertex="1" parent="1">
          <mxGeometry x="20" y="770" width="520" height="78" as="geometry">
            <mxRectangle x="20" y="280" width="60" height="30" as="alternateBounds" />
          </mxGeometry>
        </mxCell>
        <mxCell id="NX_1nB3qf75w2sHviqtp-16" value="" style="line;strokeWidth=1;fillColor=none;align=left;verticalAlign=middle;spacingTop=-1;spacingLeft=3;spacingRight=3;rotatable=0;labelPosition=right;points=[];portConstraint=eastwest;strokeColor=#788AA3;labelBackgroundColor=none;fontColor=#46495D;rounded=1;" vertex="1" parent="NX_1nB3qf75w2sHviqtp-15">
          <mxGeometry y="70" width="520" height="8" as="geometry" />
        </mxCell>
        <mxCell id="NX_1nB3qf75w2sHviqtp-17" value="&lt;div&gt;Jeu&lt;/div&gt;&lt;div&gt;&lt;br&gt;&lt;/div&gt;Le jeu Monopoly en lui même qui va pouvoir&lt;br&gt;être joué par les joueurs qui veulent bien y jouer" style="swimlane;fontStyle=1;align=center;verticalAlign=top;childLayout=stackLayout;horizontal=1;startSize=70;horizontalStack=0;resizeParent=1;resizeParentMax=0;resizeLast=0;collapsible=1;marginBottom=0;whiteSpace=wrap;html=1;labelBackgroundColor=none;fillColor=#B2C9AB;strokeColor=#788AA3;fontColor=#46495D;rounded=1;" vertex="1" parent="1">
          <mxGeometry x="20" y="880" width="520" height="410" as="geometry">
            <mxRectangle x="310" y="90" width="60" height="30" as="alternateBounds" />
          </mxGeometry>
        </mxCell>
        <mxCell id="NX_1nB3qf75w2sHviqtp-18" value="&lt;div&gt;&lt;b&gt;- nbrDeJoueurs&lt;/b&gt;&lt;/div&gt;&lt;div&gt;Le nombre joueur dans la partie&lt;/div&gt;" style="text;strokeColor=none;fillColor=none;align=left;verticalAlign=top;spacingLeft=4;spacingRight=4;overflow=hidden;rotatable=0;points=[[0,0.5],[1,0.5]];portConstraint=eastwest;whiteSpace=wrap;html=1;labelBackgroundColor=none;fontColor=#46495D;rounded=1;" vertex="1" parent="NX_1nB3qf75w2sHviqtp-17">
          <mxGeometry y="70" width="520" height="40" as="geometry" />
        </mxCell>
        <mxCell id="NX_1nB3qf75w2sHviqtp-22" value="&lt;div&gt;&lt;b&gt;- listeJoueurs&lt;/b&gt;&lt;br&gt;&lt;/div&gt;&lt;div&gt;La liste des joueurs qui sont dans la partie&lt;/div&gt;" style="text;strokeColor=none;fillColor=none;align=left;verticalAlign=top;spacingLeft=4;spacingRight=4;overflow=hidden;rotatable=0;points=[[0,0.5],[1,0.5]];portConstraint=eastwest;whiteSpace=wrap;html=1;labelBackgroundColor=none;fontColor=#46495D;rounded=1;" vertex="1" parent="NX_1nB3qf75w2sHviqtp-17">
          <mxGeometry y="110" width="520" height="40" as="geometry" />
        </mxCell>
        <mxCell id="NX_1nB3qf75w2sHviqtp-23" value="&lt;div&gt;&lt;b&gt;- joueurActif&lt;/b&gt;&lt;br&gt;&lt;/div&gt;&lt;div&gt;Le joueur qui joue son tour sur le moment&lt;/div&gt;" style="text;strokeColor=none;fillColor=none;align=left;verticalAlign=top;spacingLeft=4;spacingRight=4;overflow=hidden;rotatable=0;points=[[0,0.5],[1,0.5]];portConstraint=eastwest;whiteSpace=wrap;html=1;labelBackgroundColor=none;fontColor=#46495D;rounded=1;" vertex="1" parent="NX_1nB3qf75w2sHviqtp-17">
          <mxGeometry y="150" width="520" height="40" as="geometry" />
        </mxCell>
        <mxCell id="NX_1nB3qf75w2sHviqtp-21" value="&lt;div&gt;&lt;b&gt;- fini&lt;/b&gt;&lt;br&gt;&lt;/div&gt;&lt;div&gt;La fin de la partie quand l&#39;une des conditions est faite&lt;/div&gt;" style="text;strokeColor=none;fillColor=none;align=left;verticalAlign=top;spacingLeft=4;spacingRight=4;overflow=hidden;rotatable=0;points=[[0,0.5],[1,0.5]];portConstraint=eastwest;whiteSpace=wrap;html=1;labelBackgroundColor=none;fontColor=#46495D;rounded=1;" vertex="1" parent="NX_1nB3qf75w2sHviqtp-17">
          <mxGeometry y="190" width="520" height="40" as="geometry" />
        </mxCell>
        <mxCell id="NX_1nB3qf75w2sHviqtp-19" value="" style="line;strokeWidth=1;fillColor=none;align=left;verticalAlign=middle;spacingTop=-1;spacingLeft=3;spacingRight=3;rotatable=0;labelPosition=right;points=[];portConstraint=eastwest;strokeColor=#788AA3;labelBackgroundColor=none;fontColor=#46495D;rounded=1;" vertex="1" parent="NX_1nB3qf75w2sHviqtp-17">
          <mxGeometry y="230" width="520" height="8" as="geometry" />
        </mxCell>
        <mxCell id="NX_1nB3qf75w2sHviqtp-20" value="&lt;div&gt;&lt;b&gt;+ preparer&lt;br&gt;&lt;/b&gt;&lt;/div&gt;&lt;div&gt;Permet de préparer le plateau de jeu&lt;/div&gt;" style="text;strokeColor=none;fillColor=none;align=left;verticalAlign=top;spacingLeft=4;spacingRight=4;overflow=hidden;rotatable=0;points=[[0,0.5],[1,0.5]];portConstraint=eastwest;whiteSpace=wrap;html=1;labelBackgroundColor=none;fontColor=#46495D;rounded=1;" vertex="1" parent="NX_1nB3qf75w2sHviqtp-17">
          <mxGeometry y="238" width="520" height="42" as="geometry" />
        </mxCell>
        <mxCell id="NX_1nB3qf75w2sHviqtp-24" value="&lt;div&gt;&lt;b&gt;+ jouerUnTour&lt;br&gt;&lt;/b&gt;&lt;/div&gt;&lt;div&gt;&lt;br&gt;&lt;/div&gt;" style="text;strokeColor=none;fillColor=none;align=left;verticalAlign=top;spacingLeft=4;spacingRight=4;overflow=hidden;rotatable=0;points=[[0,0.5],[1,0.5]];portConstraint=eastwest;whiteSpace=wrap;html=1;labelBackgroundColor=none;fontColor=#46495D;rounded=1;" vertex="1" parent="NX_1nB3qf75w2sHviqtp-17">
          <mxGeometry y="280" width="520" height="30" as="geometry" />
        </mxCell>
        <mxCell id="NX_1nB3qf75w2sHviqtp-25" value="&lt;div&gt;&lt;b&gt;+ choixNbrJoueur&lt;br&gt;&lt;/b&gt;&lt;/div&gt;&lt;div&gt;Choix qui permet de déterminer le nombre de joueur au début de la partie (maximum 4)&lt;/div&gt;" style="text;strokeColor=none;fillColor=none;align=left;verticalAlign=top;spacingLeft=4;spacingRight=4;overflow=hidden;rotatable=0;points=[[0,0.5],[1,0.5]];portConstraint=eastwest;whiteSpace=wrap;html=1;labelBackgroundColor=none;fontColor=#46495D;rounded=1;" vertex="1" parent="NX_1nB3qf75w2sHviqtp-17">
          <mxGeometry y="310" width="520" height="50" as="geometry" />
        </mxCell>
        <mxCell id="NX_1nB3qf75w2sHviqtp-26" value="&lt;div&gt;&lt;b&gt;+ changerJoueurActif&lt;br&gt;&lt;/b&gt;&lt;/div&gt;&lt;div&gt;À la fin du tour d&#39;un joueur, on passe au joueur suivant&lt;/div&gt;" style="text;strokeColor=none;fillColor=none;align=left;verticalAlign=top;spacingLeft=4;spacingRight=4;overflow=hidden;rotatable=0;points=[[0,0.5],[1,0.5]];portConstraint=eastwest;whiteSpace=wrap;html=1;labelBackgroundColor=none;fontColor=#46495D;rounded=1;" vertex="1" parent="NX_1nB3qf75w2sHviqtp-17">
          <mxGeometry y="360" width="520" height="50" as="geometry" />
        </mxCell>
        <mxCell id="NX_1nB3qf75w2sHviqtp-27" value="&lt;div&gt;Joueur&lt;/div&gt;&lt;div&gt;&lt;br&gt;&lt;/div&gt;Les joueurs/adversaires qui disputent une partie&lt;br&gt;(matérialisés par des pions.)" style="swimlane;fontStyle=1;align=center;verticalAlign=top;childLayout=stackLayout;horizontal=1;startSize=70;horizontalStack=0;resizeParent=1;resizeParentMax=0;resizeLast=0;collapsible=1;marginBottom=0;whiteSpace=wrap;html=1;labelBackgroundColor=none;fillColor=#B2C9AB;strokeColor=#788AA3;fontColor=#46495D;rounded=1;" vertex="1" parent="1">
          <mxGeometry x="20" y="1320" width="540" height="680" as="geometry">
            <mxRectangle x="310" y="90" width="60" height="30" as="alternateBounds" />
          </mxGeometry>
        </mxCell>
        <mxCell id="NX_1nB3qf75w2sHviqtp-28" value="&lt;div&gt;&lt;b&gt;- ID&lt;br&gt;&lt;/b&gt;&lt;/div&gt;&lt;div&gt;Permet au joueur de s&#39;identifier avec un pseudonyme&lt;/div&gt;" style="text;strokeColor=none;fillColor=none;align=left;verticalAlign=top;spacingLeft=4;spacingRight=4;overflow=hidden;rotatable=0;points=[[0,0.5],[1,0.5]];portConstraint=eastwest;whiteSpace=wrap;html=1;labelBackgroundColor=none;fontColor=#46495D;rounded=1;" vertex="1" parent="NX_1nB3qf75w2sHviqtp-27">
          <mxGeometry y="70" width="540" height="40" as="geometry" />
        </mxCell>
        <mxCell id="NX_1nB3qf75w2sHviqtp-29" value="&lt;div&gt;&lt;b&gt;- argent&lt;/b&gt;&lt;br&gt;&lt;/div&gt;&lt;div&gt;Argent qui permet d&#39;acheter les diverses propriétés du jeu&lt;/div&gt;" style="text;strokeColor=none;fillColor=none;align=left;verticalAlign=top;spacingLeft=4;spacingRight=4;overflow=hidden;rotatable=0;points=[[0,0.5],[1,0.5]];portConstraint=eastwest;whiteSpace=wrap;html=1;labelBackgroundColor=none;fontColor=#46495D;rounded=1;" vertex="1" parent="NX_1nB3qf75w2sHviqtp-27">
          <mxGeometry y="110" width="540" height="40" as="geometry" />
        </mxCell>
        <mxCell id="NX_1nB3qf75w2sHviqtp-30" value="&lt;div&gt;&lt;b&gt;- jetonsTractopelle&lt;/b&gt;&lt;br&gt;&lt;/div&gt;&lt;div&gt;Jetons qui pertmet de construire des étages sur les immeubles avec certaines combinaisons&lt;/div&gt;" style="text;strokeColor=none;fillColor=none;align=left;verticalAlign=top;spacingLeft=4;spacingRight=4;overflow=hidden;rotatable=0;points=[[0,0.5],[1,0.5]];portConstraint=eastwest;whiteSpace=wrap;html=1;labelBackgroundColor=none;fontColor=#46495D;rounded=1;" vertex="1" parent="NX_1nB3qf75w2sHviqtp-27">
          <mxGeometry y="150" width="540" height="40" as="geometry" />
        </mxCell>
        <mxCell id="NX_1nB3qf75w2sHviqtp-37" value="&lt;div&gt;&lt;b&gt;- jetonsBateau&lt;/b&gt;&lt;br&gt;&lt;/div&gt;&lt;div&gt;Jetons qui pertmet de construire des étages sur les immeubles avec certaines combinaisons&lt;/div&gt;" style="text;strokeColor=none;fillColor=none;align=left;verticalAlign=top;spacingLeft=4;spacingRight=4;overflow=hidden;rotatable=0;points=[[0,0.5],[1,0.5]];portConstraint=eastwest;whiteSpace=wrap;html=1;labelBackgroundColor=none;fontColor=#46495D;rounded=1;" vertex="1" parent="NX_1nB3qf75w2sHviqtp-27">
          <mxGeometry y="190" width="540" height="40" as="geometry" />
        </mxCell>
        <mxCell id="NX_1nB3qf75w2sHviqtp-38" value="&lt;div&gt;&lt;b&gt;- jetonsCamion&lt;/b&gt;&lt;br&gt;&lt;/div&gt;&lt;div&gt;Jetons qui pertmet de construire des étages sur les immeubles avec certaines combinaisons&lt;/div&gt;" style="text;strokeColor=none;fillColor=none;align=left;verticalAlign=top;spacingLeft=4;spacingRight=4;overflow=hidden;rotatable=0;points=[[0,0.5],[1,0.5]];portConstraint=eastwest;whiteSpace=wrap;html=1;labelBackgroundColor=none;fontColor=#46495D;rounded=1;" vertex="1" parent="NX_1nB3qf75w2sHviqtp-27">
          <mxGeometry y="230" width="540" height="40" as="geometry" />
        </mxCell>
        <mxCell id="NX_1nB3qf75w2sHviqtp-39" value="&lt;div&gt;&lt;b&gt;- jetonsGrue&lt;/b&gt;&lt;br&gt;&lt;/div&gt;&lt;div&gt;Jetons qui pertmet de construire des étages sur les immeubles avec certaines combinaisons&lt;/div&gt;" style="text;strokeColor=none;fillColor=none;align=left;verticalAlign=top;spacingLeft=4;spacingRight=4;overflow=hidden;rotatable=0;points=[[0,0.5],[1,0.5]];portConstraint=eastwest;whiteSpace=wrap;html=1;labelBackgroundColor=none;fontColor=#46495D;rounded=1;" vertex="1" parent="NX_1nB3qf75w2sHviqtp-27">
          <mxGeometry y="270" width="540" height="40" as="geometry" />
        </mxCell>
        <mxCell id="NX_1nB3qf75w2sHviqtp-31" value="&lt;div&gt;&lt;b&gt;- proprietes&lt;/b&gt;&lt;br&gt;&lt;/div&gt;&lt;div&gt;Propriétés obtenues par le/les joueur(s)&lt;/div&gt;" style="text;strokeColor=none;fillColor=none;align=left;verticalAlign=top;spacingLeft=4;spacingRight=4;overflow=hidden;rotatable=0;points=[[0,0.5],[1,0.5]];portConstraint=eastwest;whiteSpace=wrap;html=1;labelBackgroundColor=none;fontColor=#46495D;rounded=1;" vertex="1" parent="NX_1nB3qf75w2sHviqtp-27">
          <mxGeometry y="310" width="540" height="40" as="geometry" />
        </mxCell>
        <mxCell id="NX_1nB3qf75w2sHviqtp-40" value="&lt;div&gt;&lt;b&gt;- valeurPremierLance&lt;/b&gt;&lt;br&gt;&lt;/div&gt;&lt;div&gt;La valeur du premier lancé ?&lt;/div&gt;" style="text;strokeColor=none;fillColor=none;align=left;verticalAlign=top;spacingLeft=4;spacingRight=4;overflow=hidden;rotatable=0;points=[[0,0.5],[1,0.5]];portConstraint=eastwest;whiteSpace=wrap;html=1;labelBackgroundColor=none;fontColor=#46495D;rounded=1;" vertex="1" parent="NX_1nB3qf75w2sHviqtp-27">
          <mxGeometry y="350" width="540" height="40" as="geometry" />
        </mxCell>
        <mxCell id="NX_1nB3qf75w2sHviqtp-41" value="&lt;div&gt;&lt;b&gt;- caseActuelle&lt;/b&gt;&lt;br&gt;&lt;/div&gt;&lt;div&gt;Case sur laquelle le joueur est actuellement&lt;/div&gt;" style="text;strokeColor=none;fillColor=none;align=left;verticalAlign=top;spacingLeft=4;spacingRight=4;overflow=hidden;rotatable=0;points=[[0,0.5],[1,0.5]];portConstraint=eastwest;whiteSpace=wrap;html=1;labelBackgroundColor=none;fontColor=#46495D;rounded=1;" vertex="1" parent="NX_1nB3qf75w2sHviqtp-27">
          <mxGeometry y="390" width="540" height="40" as="geometry" />
        </mxCell>
        <mxCell id="NX_1nB3qf75w2sHviqtp-42" value="&lt;div&gt;&lt;b&gt;- caseListe&lt;/b&gt;&lt;br&gt;&lt;/div&gt;&lt;div&gt;Liste de cases disponible sur le plateau&lt;/div&gt;" style="text;strokeColor=none;fillColor=none;align=left;verticalAlign=top;spacingLeft=4;spacingRight=4;overflow=hidden;rotatable=0;points=[[0,0.5],[1,0.5]];portConstraint=eastwest;whiteSpace=wrap;html=1;labelBackgroundColor=none;fontColor=#46495D;rounded=1;" vertex="1" parent="NX_1nB3qf75w2sHviqtp-27">
          <mxGeometry y="430" width="540" height="40" as="geometry" />
        </mxCell>
        <mxCell id="NX_1nB3qf75w2sHviqtp-44" value="&lt;div&gt;&lt;b&gt;- derniereSommeDE&lt;/b&gt;&lt;br&gt;&lt;/div&gt;&lt;div&gt;Dernière somme retenu après le lancé de dé&lt;/div&gt;" style="text;strokeColor=none;fillColor=none;align=left;verticalAlign=top;spacingLeft=4;spacingRight=4;overflow=hidden;rotatable=0;points=[[0,0.5],[1,0.5]];portConstraint=eastwest;whiteSpace=wrap;html=1;labelBackgroundColor=none;fontColor=#46495D;rounded=1;" vertex="1" parent="NX_1nB3qf75w2sHviqtp-27">
          <mxGeometry y="470" width="540" height="40" as="geometry" />
        </mxCell>
        <mxCell id="NX_1nB3qf75w2sHviqtp-45" value="&lt;div&gt;&lt;b&gt;- enPrison&lt;/b&gt;&lt;br&gt;&lt;/div&gt;&lt;div&gt;Envoi le joueur en prison&lt;/div&gt;" style="text;strokeColor=none;fillColor=none;align=left;verticalAlign=top;spacingLeft=4;spacingRight=4;overflow=hidden;rotatable=0;points=[[0,0.5],[1,0.5]];portConstraint=eastwest;whiteSpace=wrap;html=1;labelBackgroundColor=none;fontColor=#46495D;rounded=1;" vertex="1" parent="NX_1nB3qf75w2sHviqtp-27">
          <mxGeometry y="510" width="540" height="40" as="geometry" />
        </mxCell>
        <mxCell id="NX_1nB3qf75w2sHviqtp-43" value="&lt;div&gt;&lt;b&gt;- tourEditionFini&lt;/b&gt;&lt;br&gt;&lt;/div&gt;" style="text;strokeColor=none;fillColor=none;align=left;verticalAlign=top;spacingLeft=4;spacingRight=4;overflow=hidden;rotatable=0;points=[[0,0.5],[1,0.5]];portConstraint=eastwest;whiteSpace=wrap;html=1;labelBackgroundColor=none;fontColor=#46495D;rounded=1;" vertex="1" parent="NX_1nB3qf75w2sHviqtp-27">
          <mxGeometry y="550" width="540" height="30" as="geometry" />
        </mxCell>
        <mxCell id="NX_1nB3qf75w2sHviqtp-32" value="" style="line;strokeWidth=1;fillColor=none;align=left;verticalAlign=middle;spacingTop=-1;spacingLeft=3;spacingRight=3;rotatable=0;labelPosition=right;points=[];portConstraint=eastwest;strokeColor=#788AA3;labelBackgroundColor=none;fontColor=#46495D;rounded=1;" vertex="1" parent="NX_1nB3qf75w2sHviqtp-27">
          <mxGeometry y="580" width="540" height="8" as="geometry" />
        </mxCell>
        <mxCell id="NX_1nB3qf75w2sHviqtp-33" value="&lt;div&gt;&lt;b&gt;+ lancerDE&lt;br&gt;&lt;/b&gt;&lt;/div&gt;&lt;div&gt;Les dés se font lancer&lt;/div&gt;" style="text;strokeColor=none;fillColor=none;align=left;verticalAlign=top;spacingLeft=4;spacingRight=4;overflow=hidden;rotatable=0;points=[[0,0.5],[1,0.5]];portConstraint=eastwest;whiteSpace=wrap;html=1;labelBackgroundColor=none;fontColor=#46495D;rounded=1;" vertex="1" parent="NX_1nB3qf75w2sHviqtp-27">
          <mxGeometry y="588" width="540" height="42" as="geometry" />
        </mxCell>
        <mxCell id="NX_1nB3qf75w2sHviqtp-34" value="&lt;div&gt;&lt;b&gt;+ avancer&lt;/b&gt;&lt;/div&gt;&lt;div&gt;&lt;b&gt;Le joueur avance par rapport à la somme des dés lancés&lt;br&gt;&lt;/b&gt;&lt;/div&gt;&lt;div&gt;&lt;br&gt;&lt;/div&gt;" style="text;strokeColor=none;fillColor=none;align=left;verticalAlign=top;spacingLeft=4;spacingRight=4;overflow=hidden;rotatable=0;points=[[0,0.5],[1,0.5]];portConstraint=eastwest;whiteSpace=wrap;html=1;labelBackgroundColor=none;fontColor=#46495D;rounded=1;" vertex="1" parent="NX_1nB3qf75w2sHviqtp-27">
          <mxGeometry y="630" width="540" height="50" as="geometry" />
        </mxCell>
        <mxCell id="NX_1nB3qf75w2sHviqtp-46" value="&lt;div&gt;Plateau&lt;/div&gt;&lt;div&gt;&lt;br&gt;&lt;/div&gt;&lt;div&gt;Le plateau de jeu sur lesquels les joueurs vont pouvoir&lt;/div&gt;se déplacer lors de la partie" style="swimlane;fontStyle=1;align=center;verticalAlign=top;childLayout=stackLayout;horizontal=1;startSize=70;horizontalStack=0;resizeParent=1;resizeParentMax=0;resizeLast=0;collapsible=1;marginBottom=0;whiteSpace=wrap;html=1;labelBackgroundColor=none;fillColor=#B2C9AB;strokeColor=#788AA3;fontColor=#46495D;rounded=1;" vertex="1" parent="1">
          <mxGeometry x="30" y="2030" width="520" height="78" as="geometry">
            <mxRectangle x="20" y="280" width="60" height="30" as="alternateBounds" />
          </mxGeometry>
        </mxCell>
        <mxCell id="NX_1nB3qf75w2sHviqtp-47" value="" style="line;strokeWidth=1;fillColor=none;align=left;verticalAlign=middle;spacingTop=-1;spacingLeft=3;spacingRight=3;rotatable=0;labelPosition=right;points=[];portConstraint=eastwest;strokeColor=#788AA3;labelBackgroundColor=none;fontColor=#46495D;rounded=1;" vertex="1" parent="NX_1nB3qf75w2sHviqtp-46">
          <mxGeometry y="70" width="520" height="8" as="geometry" />
        </mxCell>
        <mxCell id="NX_1nB3qf75w2sHviqtp-48" value="&lt;div&gt;Quartier&lt;/div&gt;&lt;div&gt;&lt;br&gt;&lt;/div&gt;&lt;div&gt;Zone où les joueurs peuvent construire leurs bâtiments&lt;/div&gt;s&#39;ils ont les matériaux suffisant pour ajouter leurs bâtiments" style="swimlane;fontStyle=1;align=center;verticalAlign=top;childLayout=stackLayout;horizontal=1;startSize=90;horizontalStack=0;resizeParent=1;resizeParentMax=0;resizeLast=0;collapsible=1;marginBottom=0;whiteSpace=wrap;html=1;labelBackgroundColor=none;fillColor=#B2C9AB;strokeColor=#788AA3;fontColor=#46495D;rounded=1;" vertex="1" parent="1">
          <mxGeometry x="30" y="2130" width="520" height="142" as="geometry">
            <mxRectangle x="310" y="90" width="60" height="30" as="alternateBounds" />
          </mxGeometry>
        </mxCell>
        <mxCell id="NX_1nB3qf75w2sHviqtp-51" value="&lt;div&gt;&lt;b&gt;- proprietaire&lt;br&gt;&lt;/b&gt;&lt;/div&gt;&lt;div&gt;Définis qui est le propriétaire d&#39;un certain quartier&lt;br&gt;&lt;br&gt;&lt;/div&gt;" style="text;strokeColor=none;fillColor=none;align=left;verticalAlign=top;spacingLeft=4;spacingRight=4;overflow=hidden;rotatable=0;points=[[0,0.5],[1,0.5]];portConstraint=eastwest;whiteSpace=wrap;html=1;labelBackgroundColor=none;fontColor=#46495D;rounded=1;" vertex="1" parent="NX_1nB3qf75w2sHviqtp-48">
          <mxGeometry y="90" width="520" height="52" as="geometry" />
        </mxCell>
        <mxCell id="NX_1nB3qf75w2sHviqtp-52" value="&lt;div&gt;Ressource&lt;/div&gt;&lt;div&gt;&lt;br&gt;&lt;/div&gt;Ressources qui permettent de construire les étages des&lt;br&gt;bâtiments" style="swimlane;fontStyle=1;align=center;verticalAlign=top;childLayout=stackLayout;horizontal=1;startSize=70;horizontalStack=0;resizeParent=1;resizeParentMax=0;resizeLast=0;collapsible=1;marginBottom=0;whiteSpace=wrap;html=1;labelBackgroundColor=none;fillColor=#B2C9AB;strokeColor=#788AA3;fontColor=#46495D;rounded=1;" vertex="1" parent="1">
          <mxGeometry x="30" y="2290" width="520" height="78" as="geometry">
            <mxRectangle x="20" y="280" width="60" height="30" as="alternateBounds" />
          </mxGeometry>
        </mxCell>
        <mxCell id="NX_1nB3qf75w2sHviqtp-53" value="" style="line;strokeWidth=1;fillColor=none;align=left;verticalAlign=middle;spacingTop=-1;spacingLeft=3;spacingRight=3;rotatable=0;labelPosition=right;points=[];portConstraint=eastwest;strokeColor=#788AA3;labelBackgroundColor=none;fontColor=#46495D;rounded=1;" vertex="1" parent="NX_1nB3qf75w2sHviqtp-52">
          <mxGeometry y="70" width="520" height="8" as="geometry" />
        </mxCell>
      </root>
    </mxGraphModel>
  </diagram>
</mxfile>
